<svg xmlns="http://www.w3.org/2000/svg" viewBox="0 0 1024 1024" role="img" aria-label="Indian fox character sheet">
  <defs>
    <radialGradient id="bg" cx="34%" cy="28%" r="72%">
      <stop offset="0%" stop-color="#dcebc2"/>
      <stop offset="100%" stop-color="#aecb8e"/>
    </radialGradient>
    <radialGradient id="fur" cx="36%" cy="27%" r="72%">
      <stop offset="0%" stop-color="#e8ab5f"/>
      <stop offset="100%" stop-color="#d88733"/>
    </radialGradient>
    <linearGradient id="hood" x1="0" y1="0" x2="0" y2="1">
      <stop offset="0%" stop-color="#6f7ea0"/>
      <stop offset="100%" stop-color="#4b5974"/>
    </linearGradient>
  </defs>
  <circle cx="512" cy="512" r="496" fill="url(#bg)"/>
  <circle cx="512" cy="512" r="490" fill="none" stroke="#ffffff" stroke-opacity="0.34" stroke-width="12"/>
  <ellipse cx="512" cy="808" rx="244" ry="170" fill="url(#hood)"/>
  <path d="M320 420l136-226 164 160" fill="#de903e"/>
  <path d="M704 420l-136-226-164 160" fill="#de903e"/>
  <path d="M366 370l76-132 94 96" fill="#f7dfc4"/>
  <path d="M658 370l-76-132-94 96" fill="#f7dfc4"/>
  <ellipse cx="512" cy="518" rx="258" ry="244" fill="url(#fur)"/>
  <ellipse cx="512" cy="612" rx="170" ry="148" fill="#fff2dd"/>
  <ellipse cx="428" cy="508" rx="52" ry="62" fill="#ffffff"/>
  <ellipse cx="596" cy="508" rx="52" ry="62" fill="#ffffff"/>
  <circle cx="428" cy="520" r="28" fill="#1f2a38"/>
  <circle cx="596" cy="520" r="28" fill="#1f2a38"/>
  <circle cx="416" cy="504" r="10" fill="#ffffff"/>
  <circle cx="584" cy="504" r="10" fill="#ffffff"/>
  <ellipse cx="512" cy="628" rx="42" ry="30" fill="#6c3d2d"/>
  <path d="M448 694q64 44 128 0" fill="none" stroke="#744536" stroke-width="18" stroke-linecap="round"/>
</svg>
