<svg xmlns="http://www.w3.org/2000/svg" viewBox="0 0 1024 1024" role="img" aria-label="Langur character sheet">
  <defs>
    <radialGradient id="bg" cx="34%" cy="28%" r="72%">
      <stop offset="0%" stop-color="#f9df90"/>
      <stop offset="100%" stop-color="#e9c05a"/>
    </radialGradient>
    <radialGradient id="fur" cx="36%" cy="27%" r="72%">
      <stop offset="0%" stop-color="#e4dbc2"/>
      <stop offset="100%" stop-color="#d1c6ab"/>
    </radialGradient>
    <linearGradient id="travel" x1="0" y1="0" x2="0" y2="1">
      <stop offset="0%" stop-color="#5d708a"/>
      <stop offset="100%" stop-color="#3a4a61"/>
    </linearGradient>
  </defs>
  <circle cx="512" cy="512" r="496" fill="url(#bg)"/>
  <circle cx="512" cy="512" r="490" fill="none" stroke="#ffffff" stroke-opacity="0.34" stroke-width="12"/>
  <ellipse cx="512" cy="806" rx="244" ry="170" fill="url(#travel)"/>
  <ellipse cx="366" cy="380" rx="92" ry="110" fill="#d8cfb6"/>
  <ellipse cx="658" cy="380" rx="92" ry="110" fill="#d8cfb6"/>
  <ellipse cx="512" cy="512" rx="262" ry="246" fill="url(#fur)"/>
  <ellipse cx="512" cy="534" rx="176" ry="162" fill="#222a34"/>
  <ellipse cx="430" cy="500" rx="52" ry="62" fill="#ffffff"/>
  <ellipse cx="594" cy="500" rx="52" ry="62" fill="#ffffff"/>
  <circle cx="430" cy="512" r="28" fill="#1f2a38"/>
  <circle cx="594" cy="512" r="28" fill="#1f2a38"/>
  <circle cx="418" cy="496" r="10" fill="#ffffff"/>
  <circle cx="582" cy="496" r="10" fill="#ffffff"/>
  <ellipse cx="512" cy="626" rx="40" ry="28" fill="#39414f"/>
  <path d="M448 690q64 46 128 0" fill="none" stroke="#7e4e3c" stroke-width="18" stroke-linecap="round"/>
</svg>
