<svg xmlns="http://www.w3.org/2000/svg" viewBox="0 0 1024 1024" role="img" aria-label="Nilgai character sheet">
  <defs>
    <radialGradient id="bg" cx="34%" cy="28%" r="72%">
      <stop offset="0%" stop-color="#f0e2c6"/>
      <stop offset="100%" stop-color="#d7bd98"/>
    </radialGradient>
    <radialGradient id="fur" cx="36%" cy="27%" r="72%">
      <stop offset="0%" stop-color="#89aac2"/>
      <stop offset="100%" stop-color="#6688a4"/>
    </radialGradient>
    <linearGradient id="academic" x1="0" y1="0" x2="0" y2="1">
      <stop offset="0%" stop-color="#4e6a86"/>
      <stop offset="100%" stop-color="#334861"/>
    </linearGradient>
  </defs>
  <circle cx="512" cy="512" r="496" fill="url(#bg)"/>
  <circle cx="512" cy="512" r="490" fill="none" stroke="#ffffff" stroke-opacity="0.34" stroke-width="12"/>
  <ellipse cx="512" cy="806" rx="242" ry="168" fill="url(#academic)"/>
  <path d="M380 742h264" stroke="#d7dfec" stroke-width="12" stroke-linecap="round"/>
  <ellipse cx="366" cy="386" rx="84" ry="110" fill="#7b9db8"/>
  <ellipse cx="658" cy="386" rx="84" ry="110" fill="#7b9db8"/>
  <ellipse cx="512" cy="512" rx="256" ry="244" fill="url(#fur)"/>
  <path d="M430 232c0 0 18 64-18 108" fill="none" stroke="#5d4d3f" stroke-width="22" stroke-linecap="round"/>
  <path d="M594 232c0 0-18 64 18 108" fill="none" stroke="#5d4d3f" stroke-width="22" stroke-linecap="round"/>
  <ellipse cx="430" cy="500" rx="52" ry="62" fill="#ffffff"/>
  <ellipse cx="594" cy="500" rx="52" ry="62" fill="#ffffff"/>
  <circle cx="430" cy="512" r="28" fill="#1f2a38"/>
  <circle cx="594" cy="512" r="28" fill="#1f2a38"/>
  <circle cx="418" cy="496" r="10" fill="#ffffff"/>
  <circle cx="582" cy="496" r="10" fill="#ffffff"/>
  <ellipse cx="512" cy="620" rx="84" ry="62" fill="#e8edf4"/>
  <ellipse cx="484" cy="618" rx="14" ry="10" fill="#4f535c"/>
  <ellipse cx="540" cy="618" rx="14" ry="10" fill="#4f535c"/>
  <path d="M450 684q62 48 124 0" fill="none" stroke="#654c3f" stroke-width="18" stroke-linecap="round"/>
</svg>
