<svg xmlns="http://www.w3.org/2000/svg" viewBox="0 0 512 512" role="img" aria-label="Nilgai portrait">
  <defs>
    <radialGradient id="bg" cx="35%" cy="30%" r="75%">
      <stop offset="0%" stop-color="#eedfbf"/>
      <stop offset="100%" stop-color="#d6bc94"/>
    </radialGradient>
    <radialGradient id="fur" cx="35%" cy="28%" r="72%">
      <stop offset="0%" stop-color="#7fa2be"/>
      <stop offset="100%" stop-color="#6487a5"/>
    </radialGradient>
  </defs>
  <circle cx="256" cy="256" r="248" fill="url(#bg)"/>
  <ellipse cx="256" cy="402" rx="114" ry="80" fill="#6f92ae"/>
  <ellipse cx="184" cy="194" rx="40" ry="54" fill="#7fa2be"/>
  <ellipse cx="328" cy="194" rx="40" ry="54" fill="#7fa2be"/>
  <ellipse cx="256" cy="250" rx="126" ry="124" fill="url(#fur)"/>
  <path d="M214 120c0 0 8 32-8 56" fill="none" stroke="#55473a" stroke-width="10" stroke-linecap="round"/>
  <path d="M298 120c0 0-8 32 8 56" fill="none" stroke="#55473a" stroke-width="10" stroke-linecap="round"/>
  <ellipse cx="214" cy="246" rx="24" ry="28" fill="#fff"/>
  <ellipse cx="298" cy="246" rx="24" ry="28" fill="#fff"/>
  <circle cx="214" cy="249" r="12" fill="#1f2a38"/>
  <circle cx="298" cy="249" r="12" fill="#1f2a38"/>
  <circle cx="210" cy="243" r="4" fill="#fff"/>
  <circle cx="294" cy="243" r="4" fill="#fff"/>
  <ellipse cx="256" cy="300" rx="40" ry="30" fill="#e8edf5"/>
  <ellipse cx="242" cy="300" rx="7" ry="5" fill="#4c4f57"/>
  <ellipse cx="270" cy="300" rx="7" ry="5" fill="#4c4f57"/>
  <path d="M228 332q28 24 56 0" fill="none" stroke="#5f4638" stroke-width="8" stroke-linecap="round"/>
</svg>
