<svg xmlns="http://www.w3.org/2000/svg" viewBox="0 0 1024 1024" role="img" aria-label="Sloth bear character sheet">
  <defs>
    <radialGradient id="bg" cx="34%" cy="28%" r="72%">
      <stop offset="0%" stop-color="#d1ccef"/>
      <stop offset="100%" stop-color="#9b97d1"/>
    </radialGradient>
    <radialGradient id="fur" cx="36%" cy="27%" r="72%">
      <stop offset="0%" stop-color="#434750"/>
      <stop offset="100%" stop-color="#252a32"/>
    </radialGradient>
    <linearGradient id="hoodie" x1="0" y1="0" x2="0" y2="1">
      <stop offset="0%" stop-color="#6f7fa2"/>
      <stop offset="100%" stop-color="#4b5873"/>
    </linearGradient>
  </defs>
  <circle cx="512" cy="512" r="496" fill="url(#bg)"/>
  <circle cx="512" cy="512" r="490" fill="none" stroke="#ffffff" stroke-opacity="0.34" stroke-width="12"/>
  <ellipse cx="512" cy="806" rx="246" ry="170" fill="url(#hoodie)"/>
  <path d="M382 748h260" stroke="#2e3950" stroke-width="14" stroke-linecap="round"/>
  <ellipse cx="368" cy="354" rx="98" ry="104" fill="#2c3139"/>
  <ellipse cx="656" cy="354" rx="98" ry="104" fill="#2c3139"/>
  <ellipse cx="512" cy="510" rx="272" ry="250" fill="url(#fur)"/>
  <ellipse cx="512" cy="596" rx="178" ry="150" fill="#ece1cf"/>
  <ellipse cx="426" cy="494" rx="52" ry="62" fill="#ffffff"/>
  <ellipse cx="598" cy="494" rx="52" ry="62" fill="#ffffff"/>
  <circle cx="426" cy="506" r="28" fill="#1f2a38"/>
  <circle cx="598" cy="506" r="28" fill="#1f2a38"/>
  <circle cx="414" cy="490" r="10" fill="#ffffff"/>
  <circle cx="586" cy="490" r="10" fill="#ffffff"/>
  <ellipse cx="512" cy="622" rx="52" ry="36" fill="#8b5a51"/>
  <path d="M444 694q68 48 136 0" fill="none" stroke="#7a4539" stroke-width="18" stroke-linecap="round"/>
</svg>
