<svg xmlns="http://www.w3.org/2000/svg" viewBox="0 0 1024 1024" role="img" aria-label="Tiger character sheet">
  <defs>
    <radialGradient id="bg" cx="34%" cy="28%" r="72%">
      <stop offset="0%" stop-color="#ffe2a3"/>
      <stop offset="100%" stop-color="#f2a345"/>
    </radialGradient>
    <radialGradient id="fur" cx="35%" cy="26%" r="72%">
      <stop offset="0%" stop-color="#ffc664"/>
      <stop offset="100%" stop-color="#ea8b1f"/>
    </radialGradient>
    <linearGradient id="jacket" x1="0" y1="0" x2="0" y2="1">
      <stop offset="0%" stop-color="#4f5f7f"/>
      <stop offset="100%" stop-color="#2f3950"/>
    </linearGradient>
  </defs>
  <circle cx="512" cy="512" r="496" fill="url(#bg)"/>
  <circle cx="512" cy="512" r="490" fill="none" stroke="#ffffff" stroke-opacity="0.34" stroke-width="12"/>

  <ellipse cx="512" cy="788" rx="240" ry="170" fill="url(#jacket)"/>
  <path d="M350 736c38-30 84-44 162-44s124 14 162 44l-44 88H394z" fill="#f7ecd7"/>

  <ellipse cx="330" cy="360" rx="108" ry="122" fill="#251e17"/>
  <ellipse cx="694" cy="360" rx="108" ry="122" fill="#251e17"/>
  <ellipse cx="338" cy="372" rx="70" ry="82" fill="#f6dfc4"/>
  <ellipse cx="686" cy="372" rx="70" ry="82" fill="#f6dfc4"/>

  <ellipse cx="512" cy="500" rx="268" ry="252" fill="url(#fur)"/>
  <ellipse cx="512" cy="590" rx="164" ry="138" fill="#fff2da"/>
  <ellipse cx="424" cy="486" rx="56" ry="64" fill="#ffffff"/>
  <ellipse cx="600" cy="486" rx="56" ry="64" fill="#ffffff"/>
  <circle cx="424" cy="498" r="30" fill="#1f2939"/>
  <circle cx="600" cy="498" r="30" fill="#1f2939"/>
  <circle cx="412" cy="482" r="10" fill="#ffffff"/>
  <circle cx="588" cy="482" r="10" fill="#ffffff"/>

  <ellipse cx="512" cy="608" rx="50" ry="34" fill="#7a3b2c"/>
  <path d="M434 668q78 70 156 0" fill="none" stroke="#7f3f30" stroke-width="20" stroke-linecap="round"/>

  <path d="M344 330l96 46" stroke="#1f1b17" stroke-width="24" stroke-linecap="round"/>
  <path d="M680 330l-96 46" stroke="#1f1b17" stroke-width="24" stroke-linecap="round"/>
  <path d="M300 476l74 34" stroke="#1f1b17" stroke-width="24" stroke-linecap="round"/>
  <path d="M724 476l-74 34" stroke="#1f1b17" stroke-width="24" stroke-linecap="round"/>
  <path d="M484 286l28 52 28-52" fill="none" stroke="#1f1b17" stroke-width="22" stroke-linecap="round"/>

  <path d="M380 760c30 24 62 24 92 0" fill="none" stroke="#e0e7f5" stroke-width="12" stroke-linecap="round"/>
  <path d="M552 760c30 24 62 24 92 0" fill="none" stroke="#e0e7f5" stroke-width="12" stroke-linecap="round"/>
</svg>
